<?xml version="1.0" encoding="UTF-8" standalone="no"?>
<svg
   xmlns:dc="http://purl.org/dc/elements/1.1/"
   xmlns:cc="http://creativecommons.org/ns#"
   xmlns:rdf="http://www.w3.org/1999/02/22-rdf-syntax-ns#"
   xmlns:svg="http://www.w3.org/2000/svg"
   xmlns="http://www.w3.org/2000/svg"
   xmlns:sodipodi="http://sodipodi.sourceforge.net/DTD/sodipodi-0.dtd"
   xmlns:inkscape="http://www.inkscape.org/namespaces/inkscape"
   sodipodi:docname="ohif-text-logo.svg"
   inkscape:version="1.0 (4035a4f, 2020-05-01)"
   id="svg152"
   version="1.1"
   viewBox="0 0 149.24881 13.555921"
   height="13.555921mm"
   width="149.24881mm">
  <defs
     id="defs146" />
  <sodipodi:namedview
     inkscape:window-maximized="0"
     inkscape:window-y="23"
     inkscape:window-x="0"
     inkscape:window-height="943"
     inkscape:window-width="1434"
     fit-margin-bottom="0"
     fit-margin-right="0"
     fit-margin-left="0"
     fit-margin-top="0"
     showgrid="false"
     inkscape:document-rotation="0"
     inkscape:current-layer="layer1"
     inkscape:document-units="mm"
     inkscape:cy="157.23701"
     inkscape:cx="447.9492"
     inkscape:zoom="1.3686807"
     inkscape:pageshadow="2"
     inkscape:pageopacity="0.0"
     borderopacity="1.0"
     bordercolor="#666666"
     pagecolor="#ffffff"
     id="base" />
  <metadata
     id="metadata149">
    <rdf:RDF>
      <cc:Work
         rdf:about="">
        <dc:format>image/svg+xml</dc:format>
        <dc:type
           rdf:resource="http://purl.org/dc/dcmitype/StillImage" />
        <dc:title></dc:title>
      </cc:Work>
    </rdf:RDF>
  </metadata>
  <g
     transform="translate(-21.381542,-24.216087)"
     id="layer1"
     inkscape:groupmode="layer"
     inkscape:label="Calque 1">
    <polygon
       transform="matrix(0.26458333,0,0,0.26458333,21.005834,-5.2549392)"
       style="fill:#f9f9f9"
       class="cls-1"
       points="26.9,146.74 12.99,112.71 1.42,112.71 21.6,161.6 32.11,161.6 52.62,112.71 40.91,112.71 "
       id="polygon22" />
    <rect
       style="fill:#f9f9f9;stroke-width:0.264583"
       class="cls-1"
       x="51.496422"
       y="24.566248"
       width="2.7966456"
       height="12.935479"
       id="rect24" />
    <polygon
       transform="matrix(0.26458333,0,0,0.26458333,21.005834,-5.2549392)"
       style="fill:#f9f9f9"
       class="cls-1"
       points="228.97,161.6 228.97,150.91 203.03,150.91 226.75,121.89 226.75,112.71 189.8,112.71 189.8,123.46 211.37,123.46 188.42,152.2 188.42,161.6 "
       id="polygon26" />
    <path
       style="fill:#f9f9f9;stroke-width:0.264583"
       class="cls-1"
       d="m 107.02453,24.928726 a 14.948958,14.948958 0 0 1 -2.77019,4.579938 14.888104,14.888104 0 0 1 -2.76754,-4.579938 l -0.13229,-0.362479 h -3.198817 l 0.325437,0.764646 a 23.931562,23.931562 0 0 0 4.36827,6.720417 v 5.450417 h 2.82311 V 32.05131 a 23.920979,23.920979 0 0 0 4.36562,-6.709833 l 0.32808,-0.764646 h -3.20939 z"
       id="path28" />
    <path
       style="fill:#f9f9f9;stroke-width:0.264583"
       class="cls-1"
       d="m 133.85063,24.216997 c -3.82058,0 -6.92679,2.979209 -6.92679,6.643688 a 6.8368333,6.8368333 0 0 0 6.91092,6.910917 c 3.82058,0 6.92679,-3.013604 6.92679,-6.720417 a 6.7997917,6.7997917 0 0 0 -6.91092,-6.834188 z m 4.10104,6.738938 a 4.0031458,4.0031458 0 0 1 -4.10104,3.987271 c -2.27806,0 -4.13279,-1.738313 -4.13279,-3.876146 0,-2.320396 1.73302,-4.005792 4.11692,-4.005792 2.30716,0 4.11691,1.711855 4.11691,3.894667 z"
       id="path30" />
    <polygon
       transform="matrix(0.26458333,0,0,0.26458333,21.005834,-5.2549392)"
       style="fill:#f9f9f9"
       class="cls-1"
       points="533.37,134.49 555.99,161.6 565.51,161.6 565.51,112.71 554.76,112.71 554.76,143.27 529.08,112.71 515.24,112.71 522.8,121.83 522.8,161.6 533.37,161.6 "
       id="polygon32" />
  </g>
</svg>
